<?xml version="1.0" encoding="iso-8859-1"?>
<!-- Uploaded to: SVG Repo, www.svgrepo.com, Generator: SVG Repo Mixer Tools -->
<svg height="800px" width="800px" version="1.1" id="Layer_1" xmlns="http://www.w3.org/2000/svg" xmlns:xlink="http://www.w3.org/1999/xlink"
	 viewBox="0 0 392.644 392.644" xml:space="preserve">
<path d="M69.597,109.133C68.757,109.133,70.438,109.327,69.597,109.133L69.597,109.133z"/>
<polygon style="fill:#FFC10D;" points="80.717,44.486 40.183,24.187 24.216,40.09 44.644,80.688 67.723,86.183 86.211,67.695 "/>
<path style="fill:#56ACE0;" d="M250.413,190.587c31.741,12.412,68.848,6.788,94.707-19.329c17.519-17.519,26.57-41.568,25.471-65.81
	l-37.883,37.883c-2.457,2.457-5.947,3.62-9.438,3.103l-58.634-9.438c-4.655-0.776-8.275-4.396-9.051-9.051l-9.438-58.634
	c-0.517-3.491,0.646-6.982,3.103-9.438l38.012-38.012c-26.57-2.133-52.364,11.442-65.81,25.471
	c-24.889,24.889-32.453,62.061-19.329,94.707c1.616,4.008,0.711,8.727-2.392,11.83L99.335,254.2h30.384
	c6.012,0,10.925,4.848,10.925,10.925c0,6.012-4.848,10.925-10.925,10.925h-52.17l-20.945,20.945h22.174
	c6.012,0,10.925,4.848,10.925,10.925s-4.848,10.925-10.925,10.925h-43.96l-4.848,4.848c-7.822,9.115-13.123,24.048,0,39.046
	c14.287,11.96,28.121,9.503,39.046,0l169.697-169.697C241.751,189.876,246.405,188.907,250.413,190.587z"/>
<path style="fill:#FFC10D;" d="M359.601,305.4l-87.337-87.337c-7.887-0.776-15.58-2.327-23.079-4.784l-44.994,44.994
	l101.301,101.301c16.485,15.903,41.115,13.446,54.109,0C374.211,344.317,374.47,320.268,359.601,305.4z"/>
<path style="fill:#194F82;" d="M302.001,216.963c22.109-3.814,42.408-14.158,58.57-30.384
	c27.927-27.927,38.529-68.848,27.927-106.925c-1.099-3.685-4.008-6.659-7.758-7.564c-3.685-1.034-7.758,0.065-10.408,2.844
	l-49.067,49.067l-45.382-7.24l-7.24-45.382l49.002-49.131c2.715-2.715,3.814-6.723,2.844-10.408
	c-1.034-3.685-3.879-6.723-7.564-7.758C272.07-6.714,232.765,5.181,205.872,32.01c-29.349,29.35-39.434,72.404-26.57,111.45
	l-10.214,10.15L100.11,84.632l5.883-5.883c2.715-2.715,3.814-6.594,2.909-10.214l-8.145-34.004
	c-0.776-3.168-2.844-5.818-5.689-7.176L42.963,1.173c-4.202-2.069-9.244-1.293-12.606,2.004L3.205,30.329
	c-3.297,3.297-4.202,8.404-2.004,12.606L27.383,95.04c1.487,2.844,4.073,4.913,7.176,5.689l34.909,8.404
	c4.202,0.129,7.176-1.164,9.244-3.232l5.883-5.883l68.978,68.978L14.583,308.179c-16.226,15.774-22.044,46.222,0,69.883
	c19.782,18.618,49.067,19.459,69.883,0L188.87,273.658l101.301,101.301c18.489,20.816,58.958,26.117,84.945,0
	c23.337-23.467,23.402-61.479,0-84.945L302.001,216.963z M44.644,80.688L24.216,40.09l15.968-15.903l40.469,20.299l5.495,23.079
	L67.658,86.054L44.644,80.688z M305.492,359.509L204.191,258.272l44.994-44.994c7.499,2.457,15.192,4.008,23.079,4.784
	l87.337,87.337c14.933,14.933,14.61,38.853,0,54.109C346.607,372.89,321.977,375.412,305.492,359.509z M29.904,362.547
	c-13.123-14.998-7.822-29.931,0-39.046l4.848-4.848h44.024c6.012,0,10.925-4.848,10.925-10.925s-4.848-10.925-10.925-10.925H56.603
	l20.945-20.945h52.17c6.012,0,10.925-4.848,10.925-10.925c0-6.012-4.848-10.925-10.925-10.925H99.335l100.331-100.331
	c3.103-3.103,4.008-7.758,2.392-11.83c-13.123-32.711-5.56-69.883,19.329-94.707c13.511-14.158,39.305-27.669,65.81-25.471
	l-38.012,38.012c-2.457,2.457-3.62,5.947-3.103,9.438l9.438,58.634c0.776,4.655,4.396,8.275,9.051,9.051l58.634,9.438
	c3.491,0.517,6.982-0.646,9.438-3.103l37.947-37.947c1.099,24.242-7.952,48.291-25.471,65.81
	c-25.794,26.117-62.901,31.741-94.707,19.329c-4.008-1.616-8.727-0.711-11.83,2.392L68.951,362.547
	C58.09,372.05,44.256,374.571,29.904,362.547z"/>
</svg>
