<?xml version="1.0" encoding="iso-8859-1"?>
<!-- Uploaded to: SVG Repo, www.svgrepo.com, Generator: SVG Repo Mixer Tools -->
<svg height="800px" width="800px" version="1.1" id="Layer_1" xmlns="http://www.w3.org/2000/svg" xmlns:xlink="http://www.w3.org/1999/xlink"
	 viewBox="0 0 392.537 392.537" xml:space="preserve">
<path style="fill:#56ACE0;" d="M159.493,159.393c-31.547,32.323-83.459,30.448-114.036,0c-18.489-18.489-26.57-44.412-22.626-69.56
	l35.749,35.75c19.523,18.747,47.968,18.23,67.103,0c18.489-18.489,18.489-48.614,0-67.103L89.934,22.731
	c27.022-5.042,54.562,7.176,69.56,22.626C187.744,73.995,193.239,122.997,159.493,159.393z"/>
<path style="fill:#FFC10D;" d="M363.324,363.288c-10.925,10.925-27.992,8.663-35.62,0l-85.527-85.592h24.566
	c6.012,0,10.925-4.848,10.925-10.925c0-6.077-4.848-10.925-10.925-10.925H220.39l-22.109-22.044h24.242
	c6.012,0,10.925-4.848,10.925-10.925c0-6.077-4.848-10.925-10.925-10.925h-46.028l-21.657-21.657
	c-0.065-0.259-0.065-0.453-0.129-0.646c6.982-4.202,13.77-9.051,20.17-14.998c6.206-6.206,11.184-12.929,15.451-20.04
	c0.065,0,0.065,0,0.129,0l172.865,172.929C373.15,338.205,373.473,352.686,363.324,363.288z"/>
<path style="fill:#194F82;" d="M378.709,312.218L199.897,133.341c11.055-35.491,2.263-75.701-25.018-103.499
	C146.305,1.203,101.441-7.33,64.915,6.957c-7.111,3.038-9.115,11.83-3.685,17.842l49.002,49.002c9.956,9.956,9.956,26.246,0,36.267
	c-9.826,10.15-25.665,10.279-36.267,0L24.964,61.131c-5.172-4.719-13.576-4.784-17.842,3.685
	c-14.933,37.947-5.947,81.131,22.885,109.964c28.121,27.669,66.844,36.913,103.24,24.824l179.071,179.071
	c16.291,16.614,46.158,19.846,66.457,0C397.392,359.539,396.875,330.771,378.709,312.218z M45.457,159.393
	c-18.489-18.489-26.57-44.412-22.626-69.56l35.749,35.75c19.523,18.747,47.968,18.23,67.103,0c18.489-18.489,18.489-48.614,0-67.103
	L89.934,22.731c27.022-5.042,54.562,7.176,69.56,22.626c28.251,28.638,33.745,77.64,0,114.036
	C127.946,191.717,76.035,189.842,45.457,159.393z M363.324,363.288c-10.925,10.925-27.992,8.663-35.62,0l-85.527-85.592h24.566
	c6.012,0,10.925-4.848,10.925-10.925c0-6.077-4.848-10.925-10.925-10.925H220.39l-22.109-22.044h24.242
	c6.012,0,10.925-4.848,10.925-10.925c0-6.077-4.848-10.925-10.925-10.925h-46.028l-21.657-21.657
	c-0.065-0.259-0.065-0.453-0.129-0.646c6.982-4.202,13.77-9.051,20.17-14.998c6.206-6.206,11.184-12.929,15.451-20.04
	c0.065,0,0.065,0,0.129,0l172.865,172.929C373.15,338.205,373.473,352.686,363.324,363.288z"/>
</svg>
